<svg xmlns="http://www.w3.org/2000/svg" height="24" viewBox="0 96 960 960" width="24"><path d="m479 996-87-79q-108-98-178-168.5T104 622q-40-56-55.5-103.5T33 419q0-112.955 76.236-189.477Q185.473 153 298 153q49.932 0 96.466 17.5Q441 188 479 220q38-32 84.534-49.5Q610.068 153 660 153q113.382 0 190.191 76.523Q927 306.045 927 419q0 51-15.5 98.5t-55.5 103Q816 676 746 747T566 917l-87 79Zm0-183q95-87 155.5-146.5T730 563q35-44 48-77.648 13-33.647 13-66.328Q791 363 753.495 326q-37.506-37-93.014-37Q618 289 579.5 316 541 343 530 380H429q-10.526-37-49.763-64-39.237-27-80.964-27-55.546 0-91.909 37Q170 363 170 419q0 33.756 13.44 67.995 13.44 34.239 48 78.622T326 669q60 59 153 144Zm2-262Z"/></svg>